<?xml version="1.0" encoding="UTF-8"?>
<svg id="svg1" xmlns="http://www.w3.org/2000/svg" version="1.1" xmlns:inkscape="http://www.inkscape.org/namespaces/inkscape" xmlns:sodipodi="http://sodipodi.sourceforge.net/DTD/sodipodi-0.dtd" xmlns:svg="http://www.w3.org/2000/svg" xmlns:xlink="http://www.w3.org/1999/xlink" viewBox="0 0 408.35 91.3">
  <!-- Generator: Adobe Illustrator 30.3.0, SVG Export Plug-In . SVG Version: 2.1.3 Build 182)  -->
  <defs>
    <style>
      .st0 {
        stroke-width: .71px;
      }

      .st0, .st1, .st2, .st3, .st4, .st5, .st6, .st7, .st8, .st9, .st10, .st11, .st12, .st13, .st14, .st15, .st16, .st17, .st18, .st19, .st20, .st21, .st22, .st23, .st24, .st25, .st26, .st27, .st28, .st29, .st30 {
        stroke-miterlimit: 2.53;
      }

      .st0, .st3, .st31, .st11, .st14, .st21, .st23, .st25, .st30 {
        fill: #d5491d;
      }

      .st0, .st3, .st11, .st14, .st17, .st21, .st23, .st25, .st30 {
        stroke: #d5491d;
      }

      .st1 {
        stroke-width: .66px;
      }

      .st1, .st18, .st19 {
        stroke: #b43425;
      }

      .st1, .st18, .st19, .st32 {
        fill: #b43425;
      }

      .st2, .st5, .st7, .st8, .st33, .st13 {
        fill: #1d656d;
      }

      .st2, .st5, .st7, .st8, .st13 {
        stroke: #1d656d;
      }

      .st2, .st10, .st20 {
        stroke-width: .61px;
      }

      .st34, .st16, .st22, .st27, .st28 {
        fill: #f09415;
      }

      .st3 {
        stroke-width: .35px;
      }

      .st35 {
        fill: url(#Gradiente_sem_nome_5);
      }

      .st4 {
        stroke-width: .63px;
      }

      .st4, .st6, .st9, .st10, .st26 {
        fill: #2b5c50;
        stroke: #2b5c50;
      }

      .st36 {
        fill: url(#Gradiente_sem_nome_9);
      }

      .st37, .st12, .st20, .st24, .st29 {
        fill: #077875;
      }

      .st5 {
        stroke-width: .79px;
      }

      .st6, .st8, .st15, .st16, .st17, .st19, .st23, .st29 {
        stroke-width: .63px;
      }

      .st38 {
        fill: url(#Gradiente_sem_nome_2);
      }

      .st39 {
        fill: url(#Gradiente_sem_nome_11);
      }

      .st40 {
        fill: #fff;
      }

      .st7 {
        stroke-width: .57px;
      }

      .st41, .st15 {
        fill: #4a584b;
      }

      .st9 {
        stroke-width: .65px;
      }

      .st42 {
        fill: url(#Gradiente_sem_nome_13);
      }

      .st11 {
        stroke-width: .85px;
      }

      .st12, .st14 {
        stroke-width: .57px;
      }

      .st12, .st20, .st24, .st29 {
        stroke: #077875;
      }

      .st13, .st22 {
        stroke-width: .47px;
      }

      .st43 {
        fill: url(#Gradiente_sem_nome_12);
      }

      .st15 {
        stroke: #4a584b;
      }

      .st16, .st22, .st27, .st28 {
        stroke: #f09415;
      }

      .st44 {
        fill: url(#Gradiente_sem_nome_15);
      }

      .st17 {
        fill: url(#Gradiente_sem_nome);
      }

      .st18 {
        stroke-width: .46px;
      }

      .st45 {
        fill: url(#Gradiente_sem_nome_7);
      }

      .st21 {
        stroke-width: .44px;
      }

      .st46 {
        fill: url(#Gradiente_sem_nome_4);
      }

      .st47 {
        fill: url(#Gradiente_sem_nome_6);
      }

      .st48 {
        fill: url(#Gradiente_sem_nome_10);
      }

      .st24 {
        stroke-width: .63px;
      }

      .st25 {
        stroke-width: .61px;
      }

      .st26 {
        stroke-width: .64px;
      }

      .st49 {
        fill: url(#Gradiente_sem_nome_3);
      }

      .st50 {
        fill: url(#Gradiente_sem_nome_8);
      }

      .st27 {
        stroke-width: .83px;
      }

      .st28 {
        stroke-width: .71px;
      }

      .st51 {
        fill: url(#Gradiente_sem_nome_14);
      }

      .st30 {
        stroke-width: .5px;
      }
    </style>
    <linearGradient id="Gradiente_sem_nome" data-name="Gradiente sem nome" x1="301.04" y1="-156.48" x2="310.71" y2="-156.48" gradientTransform="translate(-136.93 -74.42) scale(.63 -.63)" gradientUnits="userSpaceOnUse">
      <stop offset="0" stop-color="#d5491d"/>
      <stop offset="1" stop-color="#d5491d" stop-opacity="0"/>
    </linearGradient>
    <radialGradient id="Gradiente_sem_nome_2" data-name="Gradiente sem nome 2" cx="-59.49" cy="782.23" fx="-59.49" fy="782.23" r="33.27" gradientTransform="translate(-478.87 52.93) rotate(94.75) scale(.63 -.63)" gradientUnits="userSpaceOnUse">
      <stop offset="0" stop-color="#000" stop-opacity=".91"/>
      <stop offset=".82" stop-color="#4a584b" stop-opacity="0"/>
    </radialGradient>
    <radialGradient id="Gradiente_sem_nome_3" data-name="Gradiente sem nome 3" cx="-59.49" cy="782.27" fx="-59.49" fy="782.27" r="33.27" gradientTransform="translate(-433.91 61.75) rotate(94.75) scale(.63 -.63)" gradientUnits="userSpaceOnUse">
      <stop offset="0" stop-color="#000" stop-opacity=".91"/>
      <stop offset=".82" stop-color="#4a584b" stop-opacity="0"/>
    </radialGradient>
    <radialGradient id="Gradiente_sem_nome_4" data-name="Gradiente sem nome 4" cx="-52.05" cy="782.05" fx="-52.05" fy="782.05" r="33.27" gradientTransform="translate(-484.36 33.26) rotate(94.75) scale(.63 -.63)" gradientUnits="userSpaceOnUse">
      <stop offset="0" stop-color="#000" stop-opacity=".91"/>
      <stop offset=".82" stop-color="#4a584b" stop-opacity="0"/>
    </radialGradient>
    <radialGradient id="Gradiente_sem_nome_5" data-name="Gradiente sem nome 5" cx="-59.53" cy="782.24" fx="-59.53" fy="782.24" r="33.27" gradientTransform="translate(-463.11 12.17) rotate(94.75) scale(.63 -.63)" gradientUnits="userSpaceOnUse">
      <stop offset="0" stop-color="#000" stop-opacity=".91"/>
      <stop offset=".82" stop-color="#4a584b" stop-opacity="0"/>
    </radialGradient>
    <radialGradient id="Gradiente_sem_nome_6" data-name="Gradiente sem nome 6" cx="-59.5" cy="782.27" fx="-59.5" fy="782.27" r="33.27" gradientTransform="translate(-432.76 46.69) rotate(94.75) scale(.63 -.63)" gradientUnits="userSpaceOnUse">
      <stop offset="0" stop-color="#000" stop-opacity=".91"/>
      <stop offset=".82" stop-color="#4a584b" stop-opacity="0"/>
    </radialGradient>
    <radialGradient id="Gradiente_sem_nome_7" data-name="Gradiente sem nome 7" cx="-59.48" cy="782.23" fx="-59.48" fy="782.23" r="33.27" gradientTransform="translate(-476.54 63.84) rotate(94.75) scale(.63 -.63)" gradientUnits="userSpaceOnUse">
      <stop offset="0" stop-color="#000" stop-opacity=".91"/>
      <stop offset=".82" stop-color="#4a584b" stop-opacity="0"/>
    </radialGradient>
    <radialGradient id="Gradiente_sem_nome_8" data-name="Gradiente sem nome 8" cx="-59.54" cy="782.27" fx="-59.54" fy="782.27" r="33.27" gradientTransform="translate(-428.77 -2.6) rotate(94.75) scale(.63 -.63)" gradientUnits="userSpaceOnUse">
      <stop offset="0" stop-color="#000" stop-opacity=".91"/>
      <stop offset=".82" stop-color="#4a584b" stop-opacity="0"/>
    </radialGradient>
    <radialGradient id="Gradiente_sem_nome_9" data-name="Gradiente sem nome 9" cx="-59.53" cy="782.28" fx="-59.53" fy="782.28" r="33.27" gradientTransform="translate(-419.13 15.49) rotate(94.75) scale(.63 -.63)" gradientUnits="userSpaceOnUse">
      <stop offset="0" stop-color="#000" stop-opacity=".91"/>
      <stop offset=".82" stop-color="#4a584b" stop-opacity="0"/>
    </radialGradient>
    <radialGradient id="Gradiente_sem_nome_10" data-name="Gradiente sem nome 10" cx="-59.5" cy="782.28" fx="-59.5" fy="782.28" r="33.27" gradientTransform="translate(-420.57 41.86) rotate(94.75) scale(.63 -.63)" gradientUnits="userSpaceOnUse">
      <stop offset="0" stop-color="#000" stop-opacity=".91"/>
      <stop offset=".82" stop-color="#4a584b" stop-opacity="0"/>
    </radialGradient>
    <radialGradient id="Gradiente_sem_nome_11" data-name="Gradiente sem nome 11" cx="-59.52" cy="782.21" fx="-59.52" fy="782.21" r="33.27" gradientTransform="translate(-499.02 10.15) rotate(94.75) scale(.63 -.63)" gradientUnits="userSpaceOnUse">
      <stop offset="0" stop-color="#fff" stop-opacity=".91"/>
      <stop offset=".82" stop-color="#fff" stop-opacity="0"/>
    </radialGradient>
    <radialGradient id="Gradiente_sem_nome_12" data-name="Gradiente sem nome 12" cx="-57.79" cy="775.41" fx="-57.79" fy="775.41" r="33.27" gradientTransform="translate(-489.23 61.07) rotate(94.75) scale(.63 -.63)" gradientUnits="userSpaceOnUse">
      <stop offset="0" stop-color="#fff" stop-opacity=".91"/>
      <stop offset=".82" stop-color="#fff" stop-opacity="0"/>
    </radialGradient>
    <radialGradient id="Gradiente_sem_nome_13" data-name="Gradiente sem nome 13" cx="-59.53" cy="782.27" fx="-59.53" fy="782.27" r="33.27" gradientTransform="translate(-432.82 14.62) rotate(94.75) scale(.63 -.63)" gradientUnits="userSpaceOnUse">
      <stop offset="0" stop-color="#000" stop-opacity=".91"/>
      <stop offset=".82" stop-color="#4a584b" stop-opacity="0"/>
    </radialGradient>
    <radialGradient id="Gradiente_sem_nome_14" data-name="Gradiente sem nome 14" cx="-59.48" cy="782.27" fx="-59.48" fy="782.27" r="33.27" gradientTransform="translate(-429.96 65.2) rotate(94.75) scale(.63 -.63)" gradientUnits="userSpaceOnUse">
      <stop offset="0" stop-color="#fff" stop-opacity=".91"/>
      <stop offset=".82" stop-color="#fff" stop-opacity="0"/>
    </radialGradient>
    <radialGradient id="Gradiente_sem_nome_15" data-name="Gradiente sem nome 15" cx="-61.65" cy="779.51" fx="-61.65" fy="779.51" r="33.27" gradientTransform="translate(-500.14 58.33) rotate(94.75) scale(.63 -.63)" gradientUnits="userSpaceOnUse">
      <stop offset="0" stop-color="#fff" stop-opacity=".91"/>
      <stop offset=".82" stop-color="#fff" stop-opacity="0"/>
    </radialGradient>
  </defs>
  <sodipodi:namedview id="namedview1" bordercolor="#000000" borderopacity="0.25" inkscape:current-layer="g35" inkscape:cx="259.06999" inkscape:cy="83.604259" inkscape:deskcolor="#d1d1d1" inkscape:document-units="mm" inkscape:pagecheckerboard="0" inkscape:pageopacity="0.0" inkscape:showpageshadow="2" inkscape:window-height="1011" inkscape:window-maximized="1" inkscape:window-width="1920" inkscape:window-x="0" inkscape:window-y="0" inkscape:zoom="0.96885017" pagecolor="#ffffff"/>
  <g id="g35">
    <g id="text371">
      <path id="path385" class="st40" d="M127.5,15.75c4.1,0,7.82.73,11.16,2.2l-1.94,8.88-.73.4c-1.25-.85-2.67-1.49-4.28-1.94-1.56-.49-3.1-.73-4.61-.73-3.21,0-5.59,1-7.15,3.01-1.51,2-2.27,5.17-2.27,9.49,0,9.35,3.32,14.03,9.95,14.03,1.47,0,3.03-.2,4.68-.6s3.14-.96,4.48-1.67l.94.53-.87,8.88c-3.12,1.25-6.48,1.87-10.09,1.87-6.72,0-11.82-1.87-15.3-5.61-3.47-3.74-5.21-9.15-5.21-16.23s1.85-12.71,5.54-16.63c3.7-3.92,8.93-5.88,15.7-5.88h0ZM168.85,37.19c2.89.71,5.01,1.89,6.35,3.54,1.34,1.6,2,3.74,2,6.41,0,4.32-1.74,7.53-5.21,9.62-3.43,2.05-8.55,3.07-15.36,3.07-4.45,0-8.71-.13-12.76-.4h-.07l.6-12.76-.6-30.33,16.97-.07c4.59,0,8.17.94,10.76,2.81s3.87,4.56,3.87,8.08c0,2.27-.58,4.28-1.74,6.01-1.11,1.69-2.72,3.03-4.81,4.01h0ZM164.37,28.64c0-1.83-.58-3.1-1.74-3.81-1.11-.71-3.14-1.07-6.08-1.07h-2.14l-.27,10.49,5.75.27c1.51-.45,2.63-1.14,3.34-2.07.76-.94,1.14-2.2,1.14-3.81ZM158.63,52.35c2.4,0,4.28-.49,5.61-1.47,1.34-.98,2-2.38,2-4.21,0-1.38-.42-2.47-1.27-3.27-.85-.85-2.16-1.47-3.94-1.87l-7.01.13-.07,3.94.2,6.48c2.32.18,3.81.27,4.48.27h0ZM198.78,15.68c3.83,0,7.7.76,11.62,2.27l-1.74,9.09-1.6.6c-1.69-1.11-3.38-1.98-5.08-2.61s-3.16-.94-4.41-.94c-1.47,0-2.65.38-3.54,1.14-.85.71-1.27,1.56-1.27,2.54,0,1.11.53,2.07,1.6,2.87,1.11.76,2.85,1.67,5.21,2.74,2.49,1.16,4.5,2.23,6.01,3.21,1.56.94,2.89,2.2,4.01,3.81,1.16,1.6,1.74,3.56,1.74,5.88,0,2.58-.71,4.92-2.14,7.01-1.38,2.09-3.36,3.76-5.95,5.01-2.58,1.2-5.57,1.8-8.95,1.8-4.5,0-8.95-.89-13.36-2.67l1.54-9.69,1.14-.67c1.87,1.56,3.9,2.78,6.08,3.67,2.23.85,4.14,1.27,5.75,1.27,1.69,0,2.96-.38,3.81-1.14.89-.76,1.34-1.65,1.34-2.67,0-1.2-.56-2.2-1.67-3.01-1.11-.8-2.85-1.74-5.21-2.81-2.4-1.11-4.39-2.14-5.95-3.07-1.51-.98-2.83-2.27-3.94-3.87-1.11-1.6-1.67-3.56-1.67-5.88,0-2.63.69-4.99,2.07-7.08,1.43-2.14,3.38-3.81,5.88-5.01,2.54-1.2,5.43-1.8,8.68-1.8h0ZM235.72,15.68c6.15,0,10.89,1.85,14.23,5.54,3.34,3.65,5.01,8.86,5.01,15.63,0,7.39-1.83,13.14-5.48,17.24-3.65,4.05-8.8,6.08-15.43,6.08-6.1,0-10.82-1.87-14.16-5.61-3.34-3.79-5.01-9.13-5.01-16.03,0-7.3,1.8-12.94,5.41-16.9,3.65-3.96,8.8-5.95,15.43-5.95h0ZM234.78,24.36c-2.09,0-3.76.42-5.01,1.27-1.25.8-2.16,2.14-2.74,4.01-.58,1.83-.87,4.32-.87,7.48,0,3.79.29,6.77.87,8.95.58,2.14,1.49,3.67,2.74,4.61,1.29.94,3.03,1.4,5.21,1.4s3.83-.4,5.08-1.2c1.25-.85,2.14-2.2,2.67-4.07.58-1.87.87-4.43.87-7.68,0-3.74-.29-6.68-.87-8.82s-1.49-3.65-2.74-4.54c-1.25-.94-2.98-1.4-5.21-1.4h0ZM271.59,24.83l-.2,10.02h5.41l7.48-.2.6.8-.67,8.02-8.22-.2h-4.74l-.07,2.34.4,13.83h-10.89l.6-12.76-.6-30.33h26.99l.6.8-.73,8.02-10.42-.4-5.54.07ZM322.36,17.15l-.6,7.95-8.42-.4h-1.87l-.33,20.91.4,13.83h-10.82l.6-12.76-.33-21.98h-2l-8.48.4-.67-.8.67-7.95h31.26l.6.8ZM335.45,17.15l-2.67,15.83-4.88.73-.8-.67-.4-16.1,8.22-.53.53.73Z"/>
      <path id="path386" class="st40" d="M356.6,16.03c3.7,0,6.71.95,9.05,2.85,2.38,1.85,3.57,4.4,3.57,7.66,0,2.14-.66,4.5-1.97,7.08-1.26,2.58-3.38,5.74-6.35,9.48l-5.33,6.93.15.29h9.34l7.08-.66.58.88-1.31,9.41-9.85-.51h-17.51l-2.77.22-.58-.44v-7.15l9.78-11.24c2.63-3.11,4.5-5.47,5.62-7.08s1.68-3.06,1.68-4.38c0-1.02-.36-1.85-1.09-2.48-.68-.68-1.65-1.02-2.92-1.02-1.51,0-3.16.46-4.96,1.39-1.8.88-3.45,2.07-4.96,3.57h-1.31l-1.9-8.97c5.54-3.89,10.87-5.84,15.98-5.84ZM395.7,32.66c2.58,0,4.79.58,6.64,1.75,1.9,1.17,3.33,2.75,4.3,4.74.97,1.95,1.46,4.09,1.46,6.42,0,2.58-.61,4.99-1.82,7.22s-3.04,4.04-5.47,5.4c-2.43,1.36-5.37,2.04-8.83,2.04-4.91,0-8.73-1.46-11.45-4.38-2.72-2.97-4.09-7.05-4.09-12.26,0-5.79,1.82-11.09,5.47-15.9,3.7-4.82,8.88-8.75,15.54-11.82h.58l7.66,5.11v1.17c-4.72,1.8-8.39,3.57-11.02,5.33s-4.57,3.77-5.84,6.06l.51.58c2.09-.97,4.21-1.46,6.35-1.46h0ZM392.42,52.72c1.7,0,2.99-.49,3.87-1.46.92-1.02,1.39-2.5,1.39-4.45,0-4.09-1.8-6.13-5.4-6.13-1.7,0-3.5.54-5.4,1.61v1.17c0,3.21.39,5.57,1.17,7.08.78,1.46,2.24,2.19,4.38,2.19h0Z"/>
    </g>
    <path id="text372" class="st40" d="M111.64,69.34c1.02,0,1.96.15,2.81.45l-.53,2.51-.22.12c-.3-.18-.65-.32-1.06-.43-.39-.11-.78-.16-1.16-.16-.73,0-1.28.2-1.63.61-.35.41-.53,1.07-.53,2,0,1.05.19,1.82.57,2.32.39.49.98.73,1.77.73.37,0,.75-.04,1.16-.12.42-.08.79-.19,1.1-.33l.26.16-.26,2.49c-.77.23-1.6.35-2.49.35-1.75,0-3.08-.45-3.99-1.34-.9-.91-1.34-2.21-1.34-3.91,0-1.74.48-3.08,1.45-4.01.96-.95,2.33-1.43,4.1-1.43ZM120.69,69.32c1.58,0,2.79.45,3.65,1.34.87.88,1.3,2.13,1.3,3.75,0,1.79-.47,3.19-1.41,4.18-.94.98-2.27,1.47-3.99,1.47-1.58,0-2.8-.46-3.67-1.37-.86-.91-1.28-2.19-1.28-3.85,0-1.75.47-3.11,1.41-4.08.94-.96,2.27-1.45,3.99-1.45ZM120.4,71.76c-.49,0-.87.08-1.14.24-.27.15-.47.42-.59.82-.12.38-.18.92-.18,1.61,0,.88.06,1.56.18,2.04.14.46.35.79.63.98s.69.29,1.2.29.89-.07,1.16-.22c.27-.16.47-.43.59-.82.12-.38.18-.92.18-1.63,0-.87-.06-1.54-.18-2.02-.12-.48-.33-.81-.63-1-.29-.19-.69-.29-1.22-.29ZM136.97,76.49l.12,3.36h-3.34l-3.53-5.75h-.16l-.02,2.04.1,3.71h-2.77l.14-3.04-.14-7.32h3.32l3.53,5.73h.2l-.1-5.62,2.81-.16-.16,7.05ZM144.92,69.34c1.21,0,2.28.16,3.22.49l-.73,2.75h-.24c-.56-.29-1.05-.49-1.47-.61-.41-.12-.86-.18-1.34-.18-.57,0-1.02.09-1.34.26-.31.16-.54.46-.69.9-.15.42-.22,1.03-.22,1.81s.07,1.39.22,1.81c.15.41.39.7.73.88.34.16.82.24,1.43.24.29,0,.58-.05.88-.14v-.49l-.04-1.73,2.81-.18-.06,1.41v2.79c-1.34.46-2.63.69-3.85.69-1.75,0-3.08-.44-3.97-1.32-.9-.88-1.34-2.15-1.34-3.79,0-1.82.52-3.21,1.55-4.16,1.05-.95,2.54-1.43,4.48-1.43h0ZM157.04,75.8c.64.96,1.46,2.08,2.47,3.34l-.04.35c-1.05.31-2.04.5-2.98.55l-.43-.31c-.57-1.05-1.09-2.06-1.57-3.04h-1.34l.12,3.16h-3.06l.14-3.04-.14-7.32,4.91-.02c1.21,0,2.14.28,2.79.84.65.54.98,1.32.98,2.34,0,.62-.16,1.21-.49,1.75-.33.54-.78,1.01-1.37,1.39h0ZM155.65,72.97c0-.45-.13-.77-.39-.98-.24-.2-.65-.32-1.2-.35l-.79.06-.06,2.73,1.37.08c.38-.14.65-.33.82-.57.18-.26.26-.58.26-.98ZM168.68,77.39l.18.2-.2,2.26h-7.48l.14-3.04-.14-7.32h7.58l.18.22-.2,2.24-2.69-.1h-1.81l-.04,1.59h1.75l1.77-.06.16.22-.18,2.26-1.96-.06-1.61.02-.02.67.04.98h1.71l2.81-.1ZM174.63,69.32c.99,0,1.98.18,2.98.53l-.45,2.65-.45.1c-.43-.31-.88-.56-1.34-.73-.45-.18-.83-.26-1.14-.26-.29,0-.51.07-.67.2-.15.12-.22.28-.22.47,0,.23.12.42.35.57.23.15.62.34,1.18.57.6.23,1.09.46,1.49.69.41.22.75.53,1.04.94.3.41.45.92.45,1.53s-.16,1.18-.47,1.71c-.3.53-.78.96-1.45,1.28-.65.33-1.47.49-2.45.49-1.18,0-2.34-.2-3.46-.61l.43-2.75.31-.22c.48.42,1.01.76,1.59,1.02.58.24,1.09.37,1.53.37.29,0,.52-.07.69-.2.18-.14.26-.31.26-.51,0-.23-.12-.42-.35-.57-.23-.15-.62-.34-1.18-.57-.61-.24-1.12-.48-1.53-.71-.39-.23-.74-.55-1.04-.96-.29-.41-.43-.92-.43-1.55s.17-1.24.51-1.75c.35-.53.86-.94,1.51-1.24.65-.31,1.43-.47,2.32-.47h0ZM183.9,69.32c.99,0,1.98.18,2.98.53l-.45,2.65-.45.1c-.43-.31-.88-.56-1.34-.73-.45-.18-.83-.26-1.14-.26-.29,0-.51.07-.67.2-.15.12-.22.28-.22.47,0,.23.12.42.35.57.23.15.62.34,1.18.57.6.23,1.09.46,1.49.69.41.22.75.53,1.04.94.3.41.45.92.45,1.53s-.16,1.18-.47,1.71c-.3.53-.78.96-1.45,1.28-.65.33-1.47.49-2.45.49-1.18,0-2.34-.2-3.46-.61l.43-2.75.31-.22c.48.42,1.01.76,1.59,1.02.58.24,1.09.37,1.53.37.29,0,.52-.07.69-.2.18-.14.26-.31.26-.51,0-.23-.12-.42-.35-.57-.23-.15-.62-.34-1.18-.57-.61-.24-1.12-.48-1.53-.71-.39-.23-.74-.55-1.04-.96-.29-.41-.43-.92-.43-1.55s.17-1.24.51-1.75c.35-.53.86-.94,1.51-1.24.65-.31,1.43-.47,2.32-.47ZM193.84,69.32c1.58,0,2.79.45,3.65,1.34.87.88,1.3,2.13,1.3,3.75,0,1.79-.47,3.19-1.41,4.18-.94.98-2.27,1.47-3.99,1.47-1.58,0-2.8-.46-3.67-1.37-.86-.91-1.28-2.19-1.28-3.85,0-1.75.47-3.11,1.41-4.08.94-.96,2.27-1.45,3.99-1.45h0ZM193.56,71.76c-.49,0-.87.08-1.14.24-.27.15-.47.42-.59.82-.12.38-.18.92-.18,1.61,0,.88.06,1.56.18,2.04.14.46.35.79.63.98.29.19.69.29,1.2.29s.89-.07,1.16-.22c.27-.16.47-.43.59-.82.12-.38.18-.92.18-1.63,0-.87-.06-1.54-.18-2.02-.12-.48-.33-.81-.63-1-.29-.19-.69-.29-1.22-.29h0ZM210.41,74.51c.71.19,1.22.48,1.55.88.34.38.51.88.51,1.49,0,1.06-.45,1.84-1.34,2.34-.9.49-2.24.73-4.03.73-1.06,0-2.21-.03-3.46-.1l.14-3.04-.14-7.32,4.61-.02c1.21,0,2.15.23,2.83.69.68.45,1.02,1.1,1.02,1.96,0,.53-.15,1.01-.45,1.43-.29.41-.69.73-1.22.96h0ZM208.9,72.58c0-.38-.14-.64-.41-.77-.27-.14-.79-.2-1.55-.2h-.31l-.06,2.1,1.32.04c.35-.1.6-.23.75-.41.16-.18.24-.43.24-.75ZM207.64,77.88c.53,0,.94-.1,1.22-.29.3-.19.45-.48.45-.86,0-.24-.09-.45-.26-.61s-.46-.3-.84-.41l-1.67.04-.02.75.04,1.28c.38.05.74.08,1.08.08h0ZM221.33,75.8c.64.96,1.46,2.08,2.47,3.34l-.04.35c-1.05.31-2.04.5-2.98.55l-.43-.31c-.57-1.05-1.09-2.06-1.57-3.04h-1.34l.12,3.16h-3.06l.14-3.04-.14-7.32,4.91-.02c1.21,0,2.14.28,2.79.84.65.54.98,1.32.98,2.34,0,.62-.16,1.21-.49,1.75-.33.54-.78,1.01-1.37,1.39h0ZM219.94,72.97c0-.45-.13-.77-.39-.98-.24-.2-.65-.32-1.2-.35l-.79.06-.06,2.73,1.37.08c.38-.14.65-.33.82-.57.18-.26.26-.58.26-.98ZM234.66,79.85h-3.1l-.29-1.65-.04-.16-1.9-.04-1.63.04-.31,1.81h-3l3.44-10.35h3.67l3.14,10.35ZM230.64,75.76l-.92-3.5h-.18l-1.12,3.5,1.1.02,1.12-.02ZM240.36,69.32c.99,0,1.98.18,2.98.53l-.45,2.65-.45.1c-.43-.31-.88-.56-1.34-.73-.45-.18-.83-.26-1.14-.26-.29,0-.51.07-.67.2-.15.12-.22.28-.22.47,0,.23.12.42.35.57.23.15.62.34,1.18.57.6.23,1.09.46,1.49.69.41.22.75.53,1.04.94.3.41.45.92.45,1.53,0,.61-.16,1.18-.47,1.71-.3.53-.78.96-1.45,1.28-.65.33-1.47.49-2.45.49-1.18,0-2.34-.2-3.46-.61l.43-2.75.31-.22c.48.42,1.01.76,1.59,1.02.58.24,1.09.37,1.53.37.29,0,.52-.07.69-.2.18-.14.26-.31.26-.51,0-.23-.12-.42-.35-.57-.23-.15-.62-.34-1.18-.57-.61-.24-1.12-.48-1.53-.71-.39-.23-.74-.55-1.04-.96-.29-.41-.43-.92-.43-1.55,0-.65.17-1.24.51-1.75.35-.53.86-.94,1.51-1.24.65-.31,1.43-.47,2.32-.47h0ZM248.61,76.51l.12,3.34h-3.06l.14-3.04-.14-7.32h3.12l-.18,7.01ZM258.01,77.55l-.18,2.3h-6.34l.14-3.04-.14-7.32h3.12l-.18,7.01.04.84h3.38l.16.2ZM267.1,77.39l.18.2-.2,2.26h-7.48l.14-3.04-.14-7.32h7.58l.18.22-.2,2.24-2.69-.1h-1.81l-.04,1.59h1.75l1.77-.06.16.22-.18,2.26-1.96-.06-1.61.02-.02.67.04.98h1.71l2.81-.1ZM272.03,76.51l.12,3.34h-3.06l.14-3.04-.14-7.32h3.12l-.18,7.01ZM281.81,75.8c.64.96,1.46,2.08,2.47,3.34l-.04.35c-1.05.31-2.04.5-2.98.55l-.43-.31c-.57-1.05-1.09-2.06-1.57-3.04h-1.34l.12,3.16h-3.06l.14-3.04-.14-7.32,4.91-.02c1.21,0,2.14.28,2.79.84.65.54.98,1.32.98,2.34,0,.62-.16,1.21-.49,1.75-.33.54-.78,1.01-1.37,1.39h0ZM280.42,72.97c0-.45-.13-.77-.39-.98-.24-.2-.65-.32-1.2-.35l-.79.06-.06,2.73,1.37.08c.38-.14.65-.33.82-.57.18-.26.26-.58.26-.98h0ZM290.37,69.32c1.58,0,2.79.45,3.65,1.34.87.88,1.3,2.13,1.3,3.75,0,1.79-.47,3.19-1.41,4.18-.94.98-2.27,1.47-3.99,1.47-1.58,0-2.8-.46-3.67-1.37-.86-.91-1.28-2.19-1.28-3.85,0-1.75.47-3.11,1.41-4.08.94-.96,2.27-1.45,3.99-1.45ZM290.08,71.76c-.49,0-.87.08-1.14.24-.27.15-.47.42-.59.82-.12.38-.18.92-.18,1.61,0,.88.06,1.56.18,2.04.14.46.35.79.63.98s.69.29,1.2.29.89-.07,1.16-.22c.27-.16.47-.43.59-.82.12-.38.18-.92.18-1.63,0-.87-.06-1.54-.18-2.02s-.33-.81-.63-1c-.29-.19-.69-.29-1.22-.29ZM304.93,69.42c1.6,0,2.83.42,3.69,1.26.87.83,1.3,2.02,1.3,3.59,0,1.85-.5,3.27-1.49,4.26-.98.98-2.39,1.47-4.24,1.47-1.22,0-2.57-.05-4.05-.14l.14-3.04-.14-7.32,4.79-.08ZM304.75,77.69c.64,0,1.13-.21,1.47-.63.35-.42.53-1.11.53-2.06,0-1.15-.16-1.97-.49-2.45-.31-.48-.84-.71-1.59-.71-.45,0-.94.02-1.47.06l-.12,4.61.04,1.04c.64.1,1.18.14,1.63.14h0ZM319.16,77.39l.18.2-.2,2.26h-7.48l.14-3.04-.14-7.32h7.58l.18.22-.2,2.24-2.69-.1h-1.81l-.04,1.59h1.75l1.77-.06.16.22-.18,2.26-1.96-.06-1.61.02-.02.67.04.98h1.71l2.81-.1ZM328.06,69.32c.99,0,1.98.18,2.98.53l-.45,2.65-.45.1c-.43-.31-.88-.56-1.34-.73-.45-.18-.83-.26-1.14-.26-.29,0-.51.07-.67.2-.15.12-.22.28-.22.47,0,.23.12.42.35.57s.62.34,1.18.57c.6.23,1.09.46,1.49.69.41.22.75.53,1.04.94.3.41.45.92.45,1.53s-.16,1.18-.47,1.71c-.3.53-.78.96-1.45,1.28-.65.33-1.47.49-2.45.49-1.18,0-2.34-.2-3.46-.61l.43-2.75.31-.22c.48.42,1.01.76,1.59,1.02.58.24,1.09.37,1.53.37.29,0,.52-.07.69-.2.18-.14.26-.31.26-.51,0-.23-.12-.42-.35-.57-.23-.15-.62-.34-1.18-.57-.61-.24-1.12-.48-1.53-.71-.39-.23-.74-.55-1.04-.96-.29-.41-.43-.92-.43-1.55s.17-1.24.51-1.75c.35-.53.86-.94,1.51-1.24.65-.31,1.43-.47,2.32-.47h0ZM338.01,69.32c1.58,0,2.79.45,3.65,1.34.87.88,1.3,2.13,1.3,3.75,0,1.79-.47,3.19-1.41,4.18-.94.98-2.27,1.47-3.99,1.47-1.58,0-2.8-.46-3.67-1.37-.86-.91-1.28-2.19-1.28-3.85,0-1.75.47-3.11,1.41-4.08.94-.96,2.27-1.45,3.99-1.45ZM337.72,71.76c-.49,0-.87.08-1.14.24-.27.15-.47.42-.59.82-.12.38-.18.92-.18,1.61,0,.88.06,1.56.18,2.04.14.46.35.79.63.98.29.19.69.29,1.2.29s.89-.07,1.16-.22c.27-.16.47-.43.59-.82.12-.38.18-.92.18-1.63,0-.87-.06-1.54-.18-2.02-.12-.48-.33-.81-.63-1-.29-.19-.69-.29-1.22-.29ZM347.64,71.87l-.04,1.98h1.28l1.94-.06.18.22-.2,2.26-2.14-.06-1.12.02v.29l.12,3.34h-3.08l.14-3.04-.14-7.32h7.11l.16.22-.2,2.24-2.69-.1h-1.32ZM361.15,69.73l-.18,2.28-2.16-.12h-.37l-.08,4.63.12,3.34h-3.06l.14-3.04-.08-4.93h-.37l-2.2.12-.2-.22.18-2.28h8.09l.16.22ZM373.87,79.85h-3.3l-1.18-3.85h-.18l-1.14,3.85h-3.32l-2.69-10.35h3.04l.16,1.57,1.28,5.62h.18l1.43-4.79-.61-2.4h3.16l.22,1.9,1.37,5.3h.2l1.55-5.44.31-1.75h2.87l-3.34,10.35ZM387.87,79.85h-3.1l-.29-1.65-.04-.16-1.9-.04-1.63.04-.31,1.81h-3l3.44-10.35h3.67l3.14,10.35ZM383.85,75.76l-.92-3.5h-.18l-1.12,3.5,1.1.02,1.12-.02ZM396.45,75.8c.64.96,1.46,2.08,2.47,3.34l-.04.35c-1.05.31-2.04.5-2.98.55l-.43-.31c-.57-1.05-1.09-2.06-1.57-3.04h-1.34l.12,3.16h-3.06l.14-3.04-.14-7.32,4.91-.02c1.21,0,2.14.28,2.79.84.65.54.98,1.32.98,2.34,0,.62-.16,1.21-.49,1.75-.33.54-.78,1.01-1.37,1.39h0ZM395.06,72.97c0-.45-.13-.77-.39-.98-.24-.2-.65-.32-1.2-.35l-.79.06-.06,2.73,1.37.08c.38-.14.65-.33.82-.57.18-.26.26-.58.26-.98h0ZM408.08,77.39l.18.2-.2,2.26h-7.48l.14-3.04-.14-7.32h7.58l.18.22-.2,2.24-2.69-.1h-1.81l-.04,1.59h1.75l1.77-.06.16.22-.18,2.26-1.96-.06-1.61.02-.02.67.04.98h1.71l2.81-.1Z"/>
  </g>
  <g id="g370">
    <rect id="rect273" class="st37" x="79.24" y="33.74" width="8.59" height="9.4"/>
    <polygon id="rect274" class="st32" points="74.98 34.1 81.86 34.1 81.86 34.1 81.86 45.78 81.86 45.78 74.98 45.78 74.98 45.78 74.98 34.1 74.98 34.1"/>
    <polygon id="rect275" class="st16" points="73.11 18.53 81.53 18.53 81.53 18.53 81.53 28.97 81.53 28.97 73.11 28.97 73.11 28.97 73.11 18.53 73.11 18.53"/>
    <polygon id="rect276" class="st37" points="57.53 19.52 74.93 19.52 74.93 19.52 74.93 61.93 74.93 61.93 57.53 61.93 57.53 61.93 57.53 19.52 57.53 19.52"/>
    <rect id="rect277" class="st33" x="53.64" y="24.71" width="10.6" height="42.42"/>
    <rect id="rect278" class="st32" x="31.97" y="32.88" width="22.41" height="29.02"/>
    <circle id="circle278" class="st34" cx="49.69" cy="17.44" r="12.68"/>
    <path id="path278" class="st8" d="M82,51.31c-.43,6.67-5.97,11.86-12.65,11.86-.55,0-1.1-.04-1.64-.11,2.16,1.57,4.77,2.41,7.44,2.41,7,0,12.68-5.68,12.68-12.68,0-.5-.03-1-.09-1.49h-5.74Z"/>
    <path id="path279" class="st23" d="M63.96,55.85c-1.93,2.29-2.99,5.19-2.99,8.18,0,.48.03.97.08,1.45h2.91v-9.63Z"/>
    <path id="path280" class="st16" d="M64.26,65.51h10.36s0,5.71,0,5.71l-2.84,4.66-9.01-5.04,1.49-5.34Z"/>
    <path id="path281" class="st2" d="M35.98,52.05c12,1.25,21.4,12.65,27.98,13.42l-.02,3.31c-8.54-.35-17.58-13.13-28.58-13.57l.62-3.16Z"/>
    <path id="path282" class="st4" d="M13.4,45.87h11.9c2.61,4.19,9.51,12.25,7.3,19.11H13.4v-19.11Z"/>
    <path id="path283" class="st41" d="M25.98,64.93l11.09-4.86.89,13.12h-11.98v-8.26Z"/>
    <path id="path284" class="st23" d="M35.53,62.99l11.75.05-.1-3.04s-5.36-3.41-11.79-4.47c0,3.9.14,7.45.14,7.45Z"/>
    <path id="path285" class="st29" d="M34.78,55.54l-10.41,10.01s-1.19,5.1,1.62,5.94c1.92-4.79,4.42-5.96,8.92-8.35-.1-2.71-.13-7.6-.13-7.6Z"/>
    <rect id="rect285" class="st41" x="34.95" y="71.74" width="3.58" height="3.4"/>
    <circle id="circle285" class="st15" cx="47.81" cy="77.97" r="12.68"/>
    <path id="path286" class="st21" d="M26.48,81.04h8.52l-.63,7.49-7.9,1.55v-9.04Z"/>
    <rect id="rect286" class="st30" x="26.07" y="80.51" width="2.23" height="9.4"/>
    <path id="path287" class="st16" d="M35.56,81.24c-1.37,4.6-4.59,8.29-9.32,9.13,1.26.4,1.94.36,3.26.36,3.47,0,7.29-1.17,9.14-3.97-1.5-1.55-2.67-3.43-3.08-5.51Z"/>
    <path id="path288" class="st23" d="M26.08,4.51c-7,0-12.68,5.68-12.68,12.68,0,4.79,2.7,9.17,6.98,11.32h7.21l1.84-11.01-.31-12.99c-.61,0-2.54,0-3.04,0h0ZM20.78,9.91c1.66,0,3,1.39,3,3.11,0,1.72-1.35,3.11-3,3.11-1.66,0-3-1.39-3.01-3.11h0c0-1.72,1.35-3.11,3.01-3.11Z"/>
    <rect id="rect288" class="st34" x="44.18" y="4.77" width="5.6" height="3.17"/>
    <path id="path289" class="st29" d="M42.12,4.51c-.23,0-.47,0-.7.02-.34,6.46-5.49,11.63-11.96,11.99-.01.22-.02.44-.02.67,0,7,5.68,12.68,12.68,12.68h0c7,0,12.68-5.68,12.68-12.68h0c0-7-5.68-12.68-12.68-12.68Z"/>
    <path id="path290" class="st25" d="M41.78,17.81h23.62l-4.62,9.38c-6.69,7.79-13.02,8.68-19,2.68v-12.07Z"/>
    <path id="path291" class="st8" d="M38.25,48.74l18.04-18.56-21.82-.04,3.49,18.83.29-.24Z"/>
    <path id="path292" class="st29" d="M72.39,73.34l2.22-2.13v8.83s-2.22-6.7-2.22-6.7Z"/>
    <path id="path293" class="st6" d="M49.48,77.98c0,7,7.77,12.99,14.77,12.99,6.08,0,10.18-4.05,10.36-10.61h-10.47s-14.66-9.39-14.66-2.38Z"/>
    <path id="path294" class="st9" d="M47.49,68.06l.59,12.37,15.85,1.69v-13.05c-1.46-.07-2.83-.41-4.18-.96l-12.27-.05Z"/>
    <path id="path295" class="st10" d="M54.67,60.74l.02.76-1.6,1.7c2.28,1.67,4.8,3.53,7.38,4.63.01-.24.02-.48.02-.72,0-1.01.11-1.86-.13-2.84-1.76-.92-3.62-2.14-5.7-3.54h0Z"/>
    <path id="path296" class="st23" d="M52.17,63.3l-4.36,4.37v12.13h.01c6.52,0,11.98-4.95,12.62-11.44-3.09-1.05-6.24-3.62-8.29-5.08l.02.02Z"/>
    <rect id="rect296" class="st18" x="25.85" y="71.97" width="9.14" height="9.03"/>
    <path id="path297" class="st6" d="M18.14,83.68l7.79,6.38v-17.35s-7.79,10.97-7.79,10.97Z"/>
    <path id="path298" class="st22" d="M13.32,59.12v12.37h12.67c-.17-6.88-5.79-12.37-12.67-12.37Z"/>
    <path id="path299" class="st13" d="M13.32,84.33v-12.37h12.67c-.17,6.88-5.79,12.37-12.67,12.37Z"/>
    <rect id="rect299" class="st23" x=".1" y="46.19" width="12.67" height="12.37"/>
    <path id="path300" class="st29" d="M12.77,20.2c-7,0-12.67,5.68-12.67,12.68,0,7,5.67,12.68,12.67,12.68v-25.35Z"/>
    <path id="path301" class="st28" d="M27.95,30.23h13.48l-.09,17.11c-4,4.72-8.46,5.84-13.39,3.38v-20.49Z"/>
    <rect id="rect301" class="st11" x="13.52" y="17.59" width="15.95" height="12.2"/>
    <rect id="rect302" class="st0" x="13.44" y="33.24" width="11.01" height="12.28"/>
    <path id="path302" class="st16" d="M13.44,33.24c11.32,0,6.66,17.83,20.76,21.56,0,0-.41.4.29-.3-10.5,0-9.78-24.04-9.78-24.04l-11.31-.58.05,3.36Z"/>
    <rect id="rect304" class="st19" x="29.44" y="4.51" width="12.35" height="12.32"/>
    <path id="path304" class="st20" d="M28.82,30.45c-.21,9.59.3,18.09,7.16,21.6l-3.96,1.35c-6.43-3.8-6.88-14.43-6.7-22.95h3.5Z"/>
    <path id="path305" class="st29" d="M42.12,4.51c-.23,0-.47,0-.7.02-.34,6.46-5.49,11.63-11.96,11.99-.01.22-.02.44-.02.67,0,7,5.68,12.68,12.68,12.68h0c7,0,12.68-5.68,12.68-12.68h0c0-7-5.68-12.68-12.68-12.68Z"/>
    <path id="path308" class="st8" d="M41.47,4.52s-.05,0-.09,0c-.34,6.41-5.86,11.56-12.26,11.99h12.35V4.52Z"/>
    <rect id="rect311" class="st24" x="29.44" y="17.5" width="12.69" height="12.37"/>
    <path id="path312" class="st34" d="M64.25,80.03l-16.44,10.96,16.44.32v-11.28Z"/>
    <path id="path313" class="st8" d="M47.81,80.44v10.21c5.49,0,9.93-5.33,15.5-10.29l-15.5.07Z"/>
    <path id="path316" class="st6" d="M47.17,72.31c-5.35.21-10.02,3.76-11.62,8.91.6,2.27,1.38,3.91,3.09,5.53,1.99-2.93,5.01-5.78,8.53-6.83v-7.61ZM57.28,81.58c.74.46,1.44.99,2.08,1.6.21-.47.4-.96.55-1.45-.01-.05-.03-.1-.04-.14h-2.59Z"/>
    <path id="path317" class="st33" d="M51.22,80.03h13.02l-5.69,4.67-7.33-4.67Z"/>
    <rect id="rect319" class="st27" x="35.64" y="63.71" width="11.44" height="7.62"/>
    <path id="path325" class="st19" d="M47.81,67.66s2.19-2.2,4.36-4.37c-1.95-1.34-2.53-2.04-4.36-2.96v7.33Z"/>
    <path id="path328" class="st41" d="M31.01,53.99l-6.42,6.13s-1.21,1.21-1.89,1.76l-.06.06h-.03c-1.81,1.42-4.08,2.27-6.57,2.27-1.03,0-2.02-.14-2.96-.41v4.14c.96.2,1.95.3,2.96.3,3.72,0,7.05-1.34,9.64-3.65,5.23-4.65,5.27-6.3,5.32-10.59h0Z"/>
    <path id="path329" class="st15" d="M64.56,69.17v10.55h10.03c-.36-5.23-5.5-9.8-10.03-10.55h0Z"/>
    <path id="path332" class="st8" d="M64.56,69.17v10.16l7.02-6.11c-1.83-2.08-4.3-3.5-7.02-4.05Z"/>
    <path id="path333" class="st15" d="M25.26,64.69L73.47,15.78l-2.53-2.66L21.77,63.36l3.49,1.34Z"/>
    <path id="path334" class="st8" d="M64.49.32c-4.08,0-7.73,1.7-10.11,5.02,4.92,1.87,7.98,6.85,7.98,12.11,0,1.39-.23,2.77-.67,4.08-1.04,2.38-2.76,3.85-2.76,3.85l4.28-.12h2.67c1.02-.11,2.01-.33,2.94-.65h-1.41V.66c-.94-.22-1.91-.34-2.92-.34Z"/>
    <path id="path335" class="st14" d="M64.49,0v13.05s10.44,0,10.44,0c-4.05-1.13-9.53-7.99-10.44-13.05Z"/>
    <path id="path337" class="st12" d="M64.49.32c0,7.03,4.56,12.73,10.18,12.73V.32h-10.18Z"/>
    <path id="path341" class="st8" d="M13.4,20.22v9.66s11.27-.02,11.27-.02c-1-5.82-6.19-9.39-11.27-9.64h0Z"/>
    <rect id="rect341" class="st3" x="17.91" y="16.08" width="11.03" height="3.01"/>
    <rect id="rect342" class="st5" x="29.53" y="23.21" width="11.86" height="6.57"/>
    <path id="path342" class="st1" d="M64.58,24.79v-11.14s9.7-.07,9.7-.07c-4.15,5.31-5.6,7.33-9.7,11.22h0Z"/>
    <path id="path343" class="st7" d="M64.81,25.28c2.94-3.78,5.92-6.53,9.87-11.29l.02,11.32-9.89-.03Z"/>
    <path id="path344" class="st17" d="M57.18,26.27l1.29-1.33-1.66-1.86-2.73,3.26,3.1-.07Z"/>
    <path id="path345" class="st26" d="M73.64,51.35c-3.42,0-6.7,1.38-9.08,3.83v9.68h10.05v-13.55c-.34-.02-.64.04-.97.04h0Z"/>
    <path id="path347" class="st19" d="M75.25,60.88v13.86h12.52c.04-.39.06-.79.06-1.19,0-6.96-5.62-12.62-12.58-12.68h0Z"/>
    <rect id="rect347" class="st32" x="74.93" y="50.99" width="6.93" height="11.81"/>
    <path id="path348" class="st23" d="M75.25,60.88v8.86l6.61-6.95c-2.08-1.43-4.09-1.9-6.61-1.92Z"/>
    <path id="path349" class="st29" d="M81.55,10.81c-2.84.9-4.68,2.8-6.28,5.32v3.39l6.28-.02v-8.69Z"/>
    <rect id="rect352" class="st31" x="74.93" y="43.15" width="6.93" height="7.89"/>
    <path id="path352" class="st19" d="M81.53,23.87c-1.71,2.3-3.51,3.92-6.29,4.65v14.25c2.77-.72,4.57-2.33,6.29-4.62v-14.28Z"/>
    <ellipse id="ellipse352" class="st29" cx="79.67" cy="80.61" rx="3" ry="3.11"/>
    <ellipse id="ellipse353" class="st6" cx="5.69" cy="73.44" rx="3" ry="3.11"/>
    <path id="path353" class="st41" d="M2.9,11.99c-.92-.01-1.69.01-2.25.04v2.86c1.51-.09,5.2-.17,9.27.74,2.3.51,5.95,2.77,9.99,4.99,4.03,2.22,8.56,4.41,13.28,4.5,3.48.06,5.98-1.13,8.52-2.24s5.2-2.2,9.57-2.4c1.06-.05,2.54-.08,3.42-.09.24-.92.37-1.87.4-2.86-.72,0-2.59.04-3.94.1-4.81.22-7.99,1.51-10.59,2.64-2.59,1.13-4.5,2.05-7.33,2-3.85-.07-8.04-1.99-11.96-4.14s-7.48-4.55-10.74-5.28c-2.91-.65-5.64-.83-7.64-.86Z"/>
    <path id="path354" class="st38" d="M36.16,48.66l-6.21,6.34-5.37,5.4s-1.25,1.3-1.93,1.84c-1.93,1.55-4.28,2.08-6.72,2.21-1.03,0-1.9-.17-2.84-.44l.04,3.62c.96.2,1.95.3,2.96.3,5.67,0,9.33-2.86,13.4-7.38l7.88-8.02c-.27-1.33-.67-2.63-1.21-3.87Z"/>
    <path id="path355" class="st49" d="M71.92,73.7l-6.92,5.98,9.59.04c-.21-3.05-1.24-4.48-2.67-6.03Z"/>
    <path id="path358" class="st46" d="M13.1,45.86l.03,10.49c5.13-.21,9.94-2.22,13.46-5.96-1.11-1.33-2.02-2.99-2.75-4.52l-10.74-.02Z"/>
    <path id="path359" class="st35" d="M14.28,14.24c-.08,1.09-.07,2.19.04,3.28,1.69.9,3.59,2.01,5.58,3.1,4.03,2.22,8.56,4.41,13.28,4.5,3.48.06,5.98-1.13,8.52-2.24,2.54-1.11,5.2-2.2,9.57-2.4.5-.02,1.09-.04,1.66-.05.24-.94.4-1.9.5-2.86-.75.02-1.59.04-2.29.07-4.81.22-7.99,1.51-10.59,2.64-2.59,1.13-4.5,2.05-7.33,2-3.85-.07-8.04-1.99-11.96-4.14-2.47-1.36-4.8-2.81-7-3.88Z"/>
    <path id="path360" class="st47" d="M74.36,51.31c-.24,0-.47.04-.71.04-3.42,0-6.7,1.38-9.08,3.83v9.68s10.05,0,10.05,0v-13.55c-.1,0-.17,0-.25,0h0Z"/>
    <path id="path361" class="st45" d="M13.32,71.96v12.37c6.88,0,12.51-5.49,12.67-12.37h-12.67Z"/>
    <path id="path362" class="st50" d="M74.29,13.57l-9.71.07v6.54c.67.13,1.35.22,2.03.27.7.06,1.41.08,2.12.06,1.65-1.88,3.15-3.86,5.57-6.95Z"/>
    <path id="path363" class="st7" d="M64.81,25.28c2.94-3.78,5.92-6.53,9.87-11.29l.02,11.32-9.89-.03Z"/>
    <path id="path364" class="st36" d="M81.53,23.87c-1.71,2.3-3.51,3.92-6.29,4.65v9.92c.33.04.66.08,1,.11,1.73.14,3.48.06,5.19-.26.04-.05.07-.1.11-.14v-14.28Z"/>
    <path id="path365" class="st48" d="M74.93,50.99v11.81s6.93,0,6.93,0v-11.81s-6.93,0-6.93,0Z"/>
    <path id="path366" class="st39" d="M2.9,11.99c-.92-.01-1.69.01-2.25.04v2.86c1.51-.09,5.2-.17,9.27.74,1.7.38,4.16,1.72,6.96,3.3.27-.98.47-1.97.59-2.98-2.45-1.4-4.75-2.62-6.92-3.1-2.91-.65-5.64-.83-7.64-.86Z"/>
    <path id="path367" class="st43" d="M26.39,58.39l-1.81,1.72s-1.21,1.21-1.89,1.76l-.06.06h-.03c-1.81,1.42-4.08,2.27-6.57,2.27-1.03,0-2.02-.14-2.96-.41v4.14c.96.2,1.95.3,2.96.3,3.72,0,7.05-1.34,9.64-3.65.62-.55,1.16-1.06,1.64-1.53-.12-1.58-.44-3.15-.94-4.65h0Z"/>
    <path id="path368" class="st42" d="M55.09,17.53c-.72,0-2.59.04-3.94.1-2.63.12-4.78.56-6.61,1.12.03.97.13,1.93.31,2.89,1.75-.58,3.78-1.04,6.43-1.16,1.06-.05,2.54-.08,3.42-.09.24-.92.37-1.87.4-2.86Z"/>
    <path id="path369" class="st51" d="M79.67,77.5c-1.66,0-3,1.39-3,3.11,0,1.72,1.35,3.11,3,3.11.01,0,.02,0,.04,0,1.1-.93,2.1-1.98,2.97-3.12,0-1.72-1.35-3.1-3.01-3.1h0Z"/>
    <path id="path370" class="st44" d="M5.69,70.33c-1.66,0-3,1.39-3.01,3.11,0,0,0,0,0,0,0,1.72,1.35,3.11,3.01,3.11,1.66,0,3-1.39,3.01-3.11,0-1.72-1.35-3.11-3-3.11,0,0,0,0,0,0Z"/>
  </g>
</svg>